<?xml version="1.0" encoding="UTF-8"?>
<svg id="_レイヤー_2" data-name="レイヤー 2" xmlns="http://www.w3.org/2000/svg" viewBox="0 0 69.4 74.85">
  <defs>
    <style>
      .cls-1 {
        fill: #d5d1cf;
      }

      .cls-2 {
        fill: #ec6955;
      }

      .cls-3 {
        fill: #d1cdca;
      }

      .cls-4 {
        fill: #e72f2e;
      }

      .cls-5 {
        fill: #fcfcfc;
      }

      .cls-6 {
        fill: #f7beb0;
      }

      .cls-7 {
        fill: #d3cfcd;
      }

      .cls-8 {
        fill: #41bfed;
      }

      .cls-9 {
        fill: #fff;
      }

      .cls-10 {
        fill: #e7e5e4;
      }

      .cls-11 {
        fill: #be7359;
      }

      .cls-12 {
        fill: #0a0303;
      }

      .cls-13 {
        fill: #ee7a65;
      }

      .cls-14 {
        fill: #292422;
      }

      .cls-15 {
        fill: #f3f191;
      }

      .cls-16 {
        fill: #918b52;
      }

      .cls-17 {
        fill: #e72129;
      }

      .cls-18 {
        fill: #e72029;
      }

      .cls-19 {
        fill: #f3a6af;
      }

      .cls-20 {
        fill: #f19575;
      }

      .cls-21 {
        fill: #ea5243;
      }

      .cls-22 {
        fill: #c2bdba;
      }

      .cls-23 {
        fill: #f2f091;
      }

      .cls-24 {
        fill: #f2f1f1;
      }

      .cls-25 {
        fill: #0b0403;
      }

      .cls-26 {
        fill: #050100;
      }

      .cls-27 {
        fill: #dcd980;
      }

      .cls-28 {
        fill: #040000;
      }

      .cls-29 {
        fill: #fefefe;
      }

      .cls-30 {
        fill: #fafafa;
      }

      .cls-31 {
        fill: #a8a19d;
      }

      .cls-32 {
        fill: #a7a09c;
      }

      .cls-33 {
        fill: #feffff;
      }

      .cls-34 {
        fill: #e71e28;
      }
    </style>
  </defs>
  <g id="_レイヤー_2-2" data-name=" レイヤー 2">
    <g>
      <path class="cls-28" d="M68.65,26.81c-.09-.06-.18-.12-.29-.14-.27-.06-.55-.09-.83-.04-.25.04-.49.11-.72.21-.34.14-.68.29-1.02.43-.43.17-.87.35-1.3.52,0,0-.05.02-.05-.02.06-.08.12-.16.18-.24.4-.48.75-.99,1.08-1.52.51-.8.91-1.65,1.29-2.52.99-2.29,1.47-4.68,1.67-7.15.05-.59.07-1.18.07-1.78,0-.71-.02-1.41-.08-2.11-.07-.84-.19-1.67-.36-2.49-.27-1.24-.65-2.45-1.22-3.59-.33-.67-.74-1.28-1.24-1.83-.17-.2-.36-.38-.57-.54-.14-.1-.28-.19-.44-.26-.58-.26-1.14.02-1.37.5-.08.18-.15.37-.19.56-.06.3-.12.6-.17.9-.1.52-.18,1.05-.31,1.56-.46,1.77-1.01,3.5-1.75,5.18-.91,2.06-1.82,4.13-2.81,6.16-.04.09-.06.18-.14.26-.03-.03-.06-.05-.08-.08-.59-.66-1.23-1.28-1.9-1.88-.93-.83-1.88-1.63-2.91-2.33-.08-.05-.15-.1-.22-.16-.5-.39-.99-.8-1.57-1.09-.1-.05-.18-.11-.25-.2-.45-.54-.96-1.03-1.48-1.5-1.05-.95-2.18-1.77-3.43-2.43-.91-.48-1.85-.9-2.84-1.17-1.15-.31-2.32-.53-3.51-.6-1.04-.07-2.07-.11-3.11-.11-.13,0-.26-.03-.39-.07-.53-.17-1.04-.41-1.53-.67-.89-.47-1.69-1.06-2.39-1.79-.76-.79-1.33-1.7-1.77-2.7-.2-.47-.35-.96-.41-1.48-.01-.16-.02-.33-.08-.48-.04-.1-.11-.14-.21-.11-.04,0-.09.03-.12.06-.11.09-.22.17-.31.27-.46.48-.81,1.02-1.05,1.63-.39.97-.55,1.98-.49,3.02.02.31.08.62.19.92,0,.03.05.07,0,.12-.03-.02-.06-.04-.09-.06-.33-.28-.62-.59-.87-.93-.26-.35-.48-.72-.55-1.16-.01-.1-.08-.16-.18-.18-.09-.02-.16.03-.21.1-.04.05-.07.12-.09.19-.11.38-.19.77-.21,1.17-.01.34.03.67.11.99.16.66.42,1.28.88,1.8.03.03.05.06.05.1-.02,0-.02.01-.02.01-.1.03-.21.07-.31.1-1.41.48-2.73,1.15-3.96,2-.88.6-1.69,1.3-2.45,2.04-.14.14-.29.26-.48.33-.1.04-.2.09-.29.15-.4.25-.8.51-1.22.74-.57.32-1.1.71-1.64,1.09-1.88,1.32-3.6,2.83-5.14,4.54-.03.03-.06.07-.12.08-.14-.29-.28-.58-.42-.87-1.07-2.22-2.06-4.46-3.03-6.72-.28-.64-.48-1.31-.7-1.98-.41-1.27-.77-2.55-.97-3.87-.05-.34-.11-.69-.2-1.03-.05-.2-.12-.38-.22-.55-.18-.3-.62-.56-1.08-.45-.22.05-.42.16-.6.29-.27.21-.51.45-.74.71-.66.76-1.14,1.62-1.52,2.54-.68,1.69-1.03,3.45-1.19,5.25-.04.53-.07,1.06-.07,1.59-.02.85.01,1.7.08,2.54.07.77.16,1.54.3,2.3.18.97.4,1.92.7,2.86.31.97.71,1.9,1.15,2.82.51,1.05,1.12,2.03,1.87,2.93.07.09.29.33.28.36,0,.02-.12-.01-.16-.02-.04,0-.09-.02-.13-.04-.68-.28-1.36-.56-2.04-.85-.31-.13-.62-.25-.95-.29-.45-.06-.87,0-1.22.31-.36.32-.55.72-.57,1.21-.01.27.02.52.08.78.17.73.48,1.41.87,2.05.59.97,1.34,1.83,2.18,2.6.22.2.44.4.67.59.08.06.1.13.08.23-.03.19-.06.37-.1.56-.04.19-.11.33-.31.43-.32.15-.46.44-.43.8.01.11.05.21.09.31.08.19.16.38.27.56.04.06.05.12.05.2,0,.19-.04.37-.04.56,0,.32-.03.65-.04.97-.05,1.02-.05,2.04,0,3.06.02.23.04.47.06.7.04.44.09.88.14,1.32.05.49.11.98.18,1.47.12.77.27,1.54.46,2.3.38,1.54.83,3.05,1.46,4.51.63,1.45,1.26,2.9,2.12,4.24.07.13.1.25.07.41-.08.39-.13.8-.17,1.2-.03.33.02.65.12.96.09.29.27.48.55.59.09.03.19.05.27.12-.01.01-.02.04-.03.04-.29.18-.36.44-.3.77.12.64.31,1.26.55,1.86.03.06.05.11.08.17.13.26.33.46.6.56.03.01.07.02.1.04.03.01.08,0,.08.05-.01.06-.1.12-.1.12l-.27.27c-.14.16-.2.35-.2.57,0,.18.04.35.08.53.09.42.3.79.53,1.14.4.6.86,1.14,1.4,1.61.47.41.98.79,1.51,1.13.17.11.36.21.54.3.13.08.28.11.44.1.35-.03.64-.18.87-.44.09-.1.17-.21.25-.32.04-.05.05-.12.13-.13.16.21.36.37.59.5.18.11.36.15.57.12.05,0,.1-.05.16,0-.06.29.09.51.29.71.02.02.04.04.06.06.24.24.51.43.8.6.67.39,1.36.73,2.1.98.59.19,1.17.41,1.78.55.35.08.65-.02.92-.26.07-.07.11-.2.21-.2.09,0,.18.07.27.11.02.01.03.02.05.02.22.12.45.12.68.05.04-.01.09-.02.13-.03.11-.01.11.04.07.12-.02.06-.03.12-.04.18-.08.38.03.7.32.95.06.05.13.1.2.14.22.14.46.26.7.35.81.32,1.64.53,2.49.7.27.05.55.11.82.17.3.06.56-.03.78-.22.08-.07.15-.16.22-.24.04-.05.08-.1.12-.16.25.19.54.27.83.33.33.07.65.12.98.19.22.05.44.04.66-.04.04,0,.08-.04.12,0,.02.11.05.23.07.34.06.29.24.47.52.57.19.07.38.11.58.14.46.06.93.07,1.4.06h.7c.46.01.92,0,1.38-.06.2-.03.4-.07.6-.14.27-.1.45-.28.51-.57.03-.12.05-.24.08-.37.29.14.58.14.88.07.25-.05.49-.1.74-.15.34-.06.67-.14.95-.34.07.04.09.1.13.15.09.11.18.21.29.29.26.19.54.22.85.15.32-.08.63-.15.95-.21.77-.15,1.52-.37,2.25-.65.27-.1.53-.23.76-.4.35-.27.53-.6.41-1.06-.03-.1-.07-.2-.07-.31h.06c.33.16.66.15.98-.04.07-.04.14-.11.22-.08.06.02.1.1.15.15.27.28.6.38.98.3.07-.01.14-.03.21-.05.56-.15,1.09-.35,1.64-.53.71-.24,1.37-.59,2.02-.96.14-.08.28-.18.41-.27.18-.13.35-.28.5-.45.16-.17.27-.36.23-.61,0-.01.03-.03.03-.05.31.11.58.01.83-.17.09-.06.18-.13.26-.2s.15-.14.23-.22c.04.04.07.09.1.13.09.11.17.23.27.34.39.44.92.53,1.44.26.09-.05.18-.1.26-.15.74-.47,1.44-.99,2.06-1.61.48-.48.9-1.02,1.23-1.61.22-.38.33-.8.38-1.23.02-.23-.04-.44-.2-.62-.1-.11-.21-.21-.31-.31-.03-.03-.06-.05-.06-.11.02-.01.05-.03.07-.03.38-.12.63-.38.77-.74.23-.58.43-1.18.55-1.8.09-.47.03-.6-.32-.9.1-.07.21-.09.32-.14.23-.1.38-.26.47-.49.03-.07.05-.15.07-.23.07-.28.1-.57.07-.86-.04-.35-.07-.7-.14-1.04-.03-.16,0-.26.11-.36.05-.06.11-.1.17-.13.15-.08.25-.2.34-.34.74-1.23,1.38-2.52,1.92-3.86.83-2.04,1.45-4.14,1.85-6.31.1-.53.19-1.06.24-1.6.03-.39.08-.77.11-1.16.05-.54.1-1.08.13-1.62.06-1.12.03-2.23-.04-3.35-.01-.04,0-.08-.01-.11-.07-.25-.08-.5-.09-.75-.01-.18-.02-.36-.04-.54,0-.1.01-.19.04-.29.04-.11.08-.23.09-.34.03-.18,0-.37-.12-.51-.16-.18-.21-.4-.24-.62-.01-.05-.03-.11-.03-.16-.04-.24-.08-.48-.12-.72-.03-.14.01-.23.12-.33.53-.48,1.04-.98,1.5-1.52.44-.52.83-1.07,1.16-1.66.31-.56.55-1.15.69-1.78.06-.25.1-.5.08-.75-.04-.55-.27-1-.74-1.31Z"/>
      <path class="cls-15" d="M26.63,5c.06.02.08.09.11.14.31.47.68.88,1.12,1.24.34.28.72.48,1.11.66.11.05.24.09.37.09.05,0,.11,0,.15-.04.08-.07.1-.18.04-.26-.05-.06-.12-.11-.18-.17-.45-.41-.71-.91-.74-1.51-.05-1.18.16-2.31.65-3.39.09-.2.21-.4.32-.6.02-.03.03-.06.09-.05.08.56.27,1.09.51,1.6.79,1.69,1.98,3.05,3.57,4.02.5.31,1,.61,1.52.88.05.02.09.05.14.08.46.32.97.45,1.52.47.91.03,1.82.05,2.73.1,1.35.07,2.67.3,3.95.73,1.87.63,3.55,1.62,5.05,2.9.71.61,1.4,1.25,1.99,1.98,1.3,1.63,2.31,3.41,2.86,5.43.18.66.3,1.33.37,2.02.07.75.05,1.49,0,2.24-.05.9-.25,1.78-.47,2.66-.07.28-.14.56-.15.85,0,.11.02.2.09.3.14.2.3.38.47.55.51.51,1.02,1.02,1.53,1.53.94,1.14,1.76,2.35,2.22,3.77.14.45.24.91.21,1.38-.04.65-.25,1.25-.57,1.81-.23.39-.52.74-.84,1.06-.82.82-1.76,1.46-2.81,1.93-.9.41-1.83.74-2.78,1.04-.41.13-.81.3-1.22.41s-.81.24-1.22.36c-1.45.42-2.91.83-4.38,1.19-.59.14-1.18.25-1.78.31-.74.07-1.47.14-2.21.22-.93.1-1.87.12-2.81.16-.56.03-1.12.06-1.67.08h-.32c-1.13-.05-2.27-.1-3.4-.16-.54-.03-1.08-.07-1.62-.13-.44-.05-.88-.08-1.32-.12-.87-.08-1.73-.23-2.58-.45-.05,0-.11-.03-.15-.06-.08-.05-.16-.07-.25-.06-.07,0-.14-.02-.21-.04-2.29-.62-4.58-1.25-6.82-2.05-.6-.21-1.2-.44-1.78-.71-.99-.45-1.87-1.04-2.66-1.78-.22-.21-.43-.44-.63-.67-.49-.61-.81-1.3-.92-2.07-.06-.41-.03-.83.07-1.23.16-.64.42-1.24.71-1.83.25-.51.57-.98.91-1.44.17-.22.34-.44.51-.67.11-.15.24-.29.37-.43.47-.48.93-.96,1.42-1.41.19-.17.33-.38.48-.58.08-.1.13-.22.04-.35-.02-.03-.02-.07-.03-.1-.13-.59-.27-1.17-.4-1.76-.14-.64-.21-1.3-.23-1.96-.01-.42-.01-.85,0-1.27,0-.41.07-.83.13-1.24.26-1.7.88-3.26,1.75-4.73.21-.36.43-.71.67-1.05.07-.1.15-.18.22-.27.06-.07.12-.14.16-.22.1-.17.22-.33.35-.48.67-.82,1.45-1.54,2.26-2.21,1.38-1.14,2.92-2.01,4.61-2.61.33-.12.67-.21,1-.31.09-.03.18-.03.27-.04.07-.01.14-.01.21-.03.05-.01.12,0,.14-.07.02-.08-.05-.11-.1-.15-.25-.21-.48-.44-.7-.68-.47-.51-.75-1.12-.91-1.78-.07-.29-.12-.58-.11-.88v-.09Z"/>
      <path class="cls-34" d="M34.79,72.03c-.83,0-1.55-.04-2.27-.08-.52-.03-1.04-.08-1.56-.13-.98-.11-1.94-.3-2.89-.55-1.45-.37-2.86-.86-4.27-1.35-.64-.22-1.27-.45-1.91-.68-.54-.19-1.07-.42-1.58-.69-1.36-.71-2.71-1.43-4.07-2.13-.67-.35-1.33-.73-1.98-1.12-.93-.56-1.69-1.31-2.35-2.17-.83-1.09-1.36-2.31-1.67-3.63-.18-.74-.18-1.5-.09-2.26.11-.89.3-1.76.61-2.6.21-.57.43-1.13.7-1.67.51-1.04,1.02-2.07,1.64-3.04.87-1.35,1.79-2.66,2.79-3.92.4-.51.85-.98,1.26-1.48.08-.1.23-.08.29-.19.05-.1.05-.22.14-.31.15-.15.27-.31.41-.46.44-.48.88-.95,1.33-1.42.17-.18.37-.35.54-.53.11-.12.23-.14.39-.09.83.28,1.67.52,2.51.76,1.22.34,2.44.69,3.68.98.59.14,1.18.25,1.78.3.57.05,1.15.11,1.72.16.14,0,.26.06.38.12.81.41,1.67.68,2.53.92.72.2,1.46.31,2.22.25.48-.03.95-.12,1.41-.24.57-.15,1.14-.34,1.7-.55.36-.13.73-.23,1.11-.29.57-.09.1,0,.13-.02.21-.14.45-.12.68-.14.55-.06,1.09-.1,1.64-.15.34-.03.68-.07,1.02-.11.63-.08,1.24-.21,1.85-.37,1.58-.4,3.15-.84,4.71-1.31.03,0,.07,0,.1-.03.17-.09.29-.03.4.1.16.18.34.35.51.53.39.42.78.83,1.16,1.25.76.87,1.53,1.73,2.25,2.63.42.52.79,1.07,1.18,1.62.54.76,1.08,1.51,1.55,2.31.78,1.33,1.49,2.69,2.05,4.14.31.81.53,1.64.66,2.5.05.31.09.62.1.94.03.79-.08,1.56-.32,2.32-.26.8-.57,1.57-1.02,2.29-.54.86-1.19,1.63-1.98,2.27-.39.31-.82.56-1.24.82-.48.29-.97.56-1.46.82-1.18.61-2.35,1.22-3.52,1.84-.97.52-1.98.95-3.02,1.31-1.2.41-2.39.85-3.6,1.23-1.05.34-2.11.61-3.18.84-.39.08-.78.13-1.17.18-.45.06-.89.1-1.34.15-.3.03-.59.05-.89.06-.61.02-1.22.07-1.73.06h-.02Z"/>
      <path class="cls-15" d="M4.69,5.75c.26,1.81.8,3.56,1.39,5.29.27.79.6,1.56.94,2.32.56,1.25,1.12,2.5,1.68,3.75.05.11.11.23.17.34.65,1.13,1.32,2.26,2.05,3.34.23.34.43.71.61,1.08.59,1.2,1.26,2.35,2.03,3.44.53.75,1.06,1.5,1.65,2.21.1.12.21.24.32.37.03.04.07.08.11.13-.1.09-.19.18-.29.26-.07.07-.65.58-.79.74-.4.47-.79.96-1.15,1.47-.53.77-.93,1.61-1.23,2.49-.18.53-.28,1.08-.25,1.65.05.8.29,1.53.69,2.22.29.5.67.94,1.08,1.34.91.88,1.94,1.57,3.1,2.08.29.07.44.3.55.55v.03c.04.06,0,.1-.04.13-.27.17-.53.34-.79.51-.09.06-.18.12-.27.19-.08.06-.15.12-.23.19-.32.31-.4.67-.27,1.09.02.05.03.1.04.15-.63.45-.62.51-.76.76-.07,0-.09-.05-.13-.08-.09-.09-.17-.19-.26-.27-.24-.21-.52-.23-.79-.06-.08.05-.16.11-.23.18-.2.19-.39.37-.55.6-.07.1-.16.14-.27.15-.48.03-.95.08-1.43,0-.4-.06-.78-.16-1.12-.37-.42-.26-.36-.33,0-.53.28-.15.55-.31.83-.45.54-.27,1.02-.65,1.48-1.03.14-.12.25-.26.26-.46,0-.08-.02-.12-.1-.13-.23-.04-.46-.08-.69-.11-.75-.09-1.5-.2-2.23-.39-.88-.23-1.68-.62-2.46-1.08-.66-.39-1.26-.87-1.81-1.4-.37-.35-.72-.7-1.02-1.11-.24-.34-.46-.69-.63-1.07-.07-.17-.06-.18.1-.21.41-.09.81-.05,1.21.04,1.1.25,2.19.51,3.29.77.56.13,1.13.23,1.7.29.25.03.5.02.76,0,.11,0,.21-.04.32-.07.1-.03.18-.08.23-.17.08-.15.08-.19-.09-.21-.3-.03-.59-.05-.88-.12-.7-.17-1.34-.46-1.96-.83-.05-.03-.1-.08-.16-.1-.41-.14-.77-.38-1.16-.58-.63-.31-1.22-.7-1.8-1.09-.19-.12-.36-.27-.52-.43-.64-.61-1.23-1.27-1.72-2.01-.09-.14-.19-.26-.27-.4-.29-.52-.64-1-.91-1.53-.17-.34-.3-.69-.39-1.06-.02-.1-.04-.19-.02-.28.07-.04.11,0,.16.01.13.04.25.09.38.14.98.4,1.96.81,2.95,1.21.43.18.89.29,1.34.42s.89.28,1.36.34c.24.11.5.14.76.17h.03c.3,0,.58.11.86.21.32.1.64.19.96.28.08.02.16.04.24.03.1,0,.17-.03.16-.07-.03-.06-.09-.04-.14-.05-.86-.2-1.62-.6-2.31-1.14-.01-.01-.03-.02-.04-.03-.84-.6-1.43-1.42-1.95-2.29-.42-.71-.83-1.43-1.28-2.13-.11-.17-.2-.35-.27-.53-.17-.45-.38-.87-.59-1.3-.68-1.39-1.16-2.85-1.46-4.36-.16-.77-.27-1.54-.35-2.32-.07-.71-.11-1.42-.13-2.13s.02-1.42.07-2.13c.07-.88.2-1.75.39-2.62.23-.99.53-1.95.98-2.85.23-.46.5-.9.83-1.3.03-.04.06-.1.13-.07h0Z"/>
      <path class="cls-15" d="M67.75,28.22c.04.1.02.18,0,.26-.11.52-.31,1-.58,1.45-.26.45-.55.89-.9,1.28-.04.04-.07.08-.1.12-.51.77-1.14,1.44-1.78,2.1-.52.54-1.04,1.07-1.59,1.58-.31.29-.64.55-1.03.74-.49.23-.96.5-1.46.69-.57.22-1.16.39-1.75.54-.09.02-.19.05-.28.08.03.06.07.07.12.07.28.02.56.03.84,0,.66-.08,1.32-.19,1.97-.33.9-.2,1.79-.4,2.69-.59.32-.07.64-.12.96-.17.19-.03.38-.04.57,0,.12.02.15.08.1.2-.07.16-.15.31-.23.46-.38.69-.9,1.28-1.49,1.8s-1.22.98-1.9,1.38c-.09.05-.17.1-.25.15-.72.47-1.5.77-2.33.96-.66.16-1.33.25-2,.33-.21.03-.43.07-.64.11-.11.02-.14.07-.12.17,0,.06.03.12.06.18.05.09.1.17.18.23.46.37.92.75,1.46,1.02.3.15.59.31.88.47.08.04.16.09.23.15.07.05.08.12.02.18-.07.08-.16.14-.25.2-.33.2-.69.32-1.07.36-.38.05-.77.07-1.16,0h-.3c-.12,0-.22-.05-.3-.15-.15-.22-.35-.41-.55-.6-.08-.07-.16-.14-.26-.2-.21-.13-.52-.15-.75.07-.08.07-.15.15-.23.23-.05.05-.08.12-.17.15-.15-.35-.45-.56-.77-.77.02-.08.05-.15.07-.23.08-.33.04-.64-.19-.91-.11-.12-.23-.23-.36-.33-.09-.07-.2-.12-.28-.22.15-.25.31-.49.44-.75.09-.17.23-.28.41-.36.83-.34,1.59-.79,2.31-1.34.6-.46,1.15-.98,1.63-1.58.13-.17.29-.32.4-.51.03-.06.07-.11.09-.16.22-.49.41-1,.52-1.53.11-.58.1-1.15-.04-1.71-.18-.77-.5-1.48-.87-2.18-.24-.45-.51-.87-.82-1.27-.24-.31-.48-.61-.73-.91-.1-.12-.21-.25-.33-.35-.5-.45-.99-.92-1.51-1.35,0-.07.05-.11.08-.16.72-.92,1.39-1.86,2.02-2.84.16-.24.33-.47.49-.71.35-.56.69-1.12.95-1.72.17-.38.36-.75.57-1.11.64-1.11,1.31-2.2,1.99-3.28.17-.27.32-.54.45-.83.69-1.52,1.37-3.05,2.03-4.59.26-.6.46-1.23.67-1.85.3-.9.58-1.82.81-2.74.12-.5.21-1,.3-1.51.02-.12.04-.23.06-.34.06-.02.08.03.11.06.29.35.54.74.75,1.15.35.67.61,1.38.83,2.11.25.84.41,1.7.53,2.56.18,1.33.21,2.66.14,3.99-.09,1.77-.36,3.51-.86,5.21-.24.83-.55,1.64-.91,2.42-.21.44-.41.88-.65,1.3-.37.66-.79,1.29-1.27,1.88-.16.2-.31.4-.45.61-.38.58-.81,1.12-1.32,1.6-.55.51-1.09,1.03-1.66,1.51-.39.32-.81.61-1.3.76-.02,0-.03.01-.05.02-.04.01-.07.03-.06.07,0,.03.05.05.08.06.12.04.25.03.37,0,.37-.09.73-.2,1.09-.32.24-.08.48-.16.71-.25.33-.13.67-.2,1.01-.27.56-.11,1.12-.26,1.67-.44.51-.16,1.01-.33,1.51-.49.11-.04.22-.07.34-.09.08-.01.16-.04.23-.07.56-.24,1.13-.47,1.69-.71.17-.07.33-.14.52-.19h-.05Z"/>
      <path class="cls-9" d="M57.99,49.12c0-.21-.09-.39-.19-.56-.17-.29-.35-.59-.57-.85,0-.08.08-.12.12-.18.1-.14.17-.29.21-.46.06-.27.02-.52-.08-.77-.14-.33-.28-.66-.46-.97-.03-.05-.08-.1-.07-.18h.3c.42,0,.83,0,1.23-.11.37-.09.72-.23,1.04-.45.16-.11.3-.23.41-.39.21-.3.22-.57,0-.87-.09-.13-.21-.23-.34-.3l-.87-.48c-.41-.23-.81-.46-1.22-.7-.06-.03-.11-.08-.17-.12.04-.06.09-.03.13-.03.14,0,.29,0,.43.02.53.04,1.06-.03,1.59-.11.76-.11,1.45-.39,2.14-.71,1.08-.5,2.03-1.2,2.9-2,.07-.07.14-.13.22-.2.08.08.05.16.06.24.11,3.25-.23,6.44-1.14,9.56-.66,2.25-1.53,4.41-2.72,6.46-.17-.25-.36-.44-.67-.4v-.06c.13-.22.11-.45.02-.68-.07-.17-.12-.34-.19-.5-.04-.11-.1-.21-.15-.31.07-.09.15-.18.21-.27.19-.31.24-.63.13-.98-.14-.43-.28-.85-.45-1.27-.15-.37-.3-.75-.45-1.13-.06-.15-.13-.3-.22-.43-.15-.21-.32-.26-.56-.14-.11.06-.21.14-.32.2-.09.05-.17.14-.29.16v-.03h0Z"/>
      <path class="cls-9" d="M4.99,39.04c.74.58,1.49,1.12,2.3,1.59.38.22.78.41,1.18.59.5.21,1.02.33,1.56.42.58.09,1.16.12,1.75.08h.25c-.02.08-.08.1-.13.13-.41.24-.82.48-1.24.71l-.87.48c-.15.08-.28.19-.38.34-.17.27-.17.54.01.81.1.14.22.26.36.36.33.24.7.4,1.1.5.34.09.69.12,1.04.11h.48s0,.09-.02.13c-.2.34-.36.7-.51,1.07-.1.26-.12.52-.05.79.03.12.08.24.16.34.05.07.1.13.15.2-.15.23-.31.46-.45.69-.14.23-.29.45-.3.74-.07,0-.11-.03-.15-.06-.12-.08-.24-.16-.36-.24-.07-.04-.14-.08-.22-.1-.16-.04-.31,0-.4.14-.07.1-.14.21-.19.33-.33.82-.67,1.63-.94,2.47-.17.51-.06.93.32,1.32-.16.3-.28.63-.38.96-.05.15-.05.3.01.45.02.05.04.1.06.16-.17,0-.33,0-.44.13-.09-.05-.11-.12-.14-.19-1.16-2.24-2.13-4.56-2.72-7.03-.18-.74-.35-1.47-.46-2.22-.1-.64-.18-1.28-.24-1.93-.04-.41-.08-.82-.13-1.24,0-.04-.01-.09-.02-.13-.04-.95-.07-1.91-.01-2.86l.02-.04Z"/>
      <path class="cls-9" d="M17.52,15.93c-.33.65-.64,1.31-.88,2-.28.79-.49,1.6-.62,2.43-.06.38-.08.77-.12,1.16,0,.09-.02.18-.06.26-.06.12-.11.25-.18.36-.12.19-.2.4-.28.61-.25.73-.49,1.47-.65,2.22-.05.22-.09.44-.14.66-.08,0-.1-.07-.13-.11-.66-.96-1.28-1.94-1.81-2.97-.23-.44-.45-.88-.68-1.32-.04-.08-.08-.16-.12-.25.21-.1.36-.28.5-.45,1.46-1.7,3.11-3.2,4.94-4.51.07-.05.15-.1.22-.15.01.01.02.03.02.04s0,.02,0,.02Z"/>
      <path class="cls-9" d="M53.55,16.85c.09.06.18.12.26.19.61.51,1.2,1.03,1.78,1.57.63.59,1.21,1.23,1.79,1.88.22.24.22.25.07.54-.37.73-.75,1.45-1.12,2.18-.18.35-.36.71-.58,1.04-.03.04-.04.11-.12.1-.22-.7-.47-1.39-.61-2.11-.05-.23-.11-.45-.2-.67-.11-.26-.17-.52-.2-.81-.08-.79-.26-1.56-.49-2.32-.16-.52-.37-1.03-.58-1.54-.02-.02,0-.04,0-.06h0Z"/>
      <path class="cls-9" d="M10.87,63.09c.09.06.12.13.16.2.46.64.95,1.24,1.54,1.77.3.27.6.52.94.73.43.27.87.54,1.31.81.05.03.1.05.14.08.03.02.05.06.02.09-.03.05-.06.09-.09.13-.23.3-.46.6-.7.9-.09.12-.2.23-.33.32-.14.09-.28.12-.43.03-.12-.08-.25-.14-.37-.22-.5-.33-.98-.68-1.43-1.07-.55-.48-1.02-1.02-1.42-1.62-.23-.34-.39-.71-.47-1.11-.01-.08-.01-.14.04-.2.33-.32.7-.59,1.08-.84h.01Z"/>
      <path class="cls-9" d="M54.37,66.72c.38-.23.75-.46,1.12-.68,1.02-.61,1.86-1.41,2.57-2.36.11-.15.22-.3.34-.46.03-.04.05-.09.12-.12.37.23.71.5,1.04.8.07.07.09.14.07.24-.06.35-.19.67-.38.97-.35.56-.77,1.06-1.25,1.52-.54.52-1.15.96-1.78,1.36-.08.05-.17.1-.26.15-.17.11-.33.08-.47-.04-.1-.09-.2-.18-.29-.28-.26-.33-.52-.67-.78-1-.02-.02-.03-.05-.05-.09h0Z"/>
      <path class="cls-9" d="M34.69,72.73h1.38c.24,0,.49-.02.73-.04.05,0,.09.02.09.07v.97c-.03.16-.12.26-.28.3-.38.1-.76.13-1.15.17-.16.02-.32.03-.48.04-.13,0-.25.02-.38,0-.5-.04-1.01-.06-1.5-.15-.13-.02-.26-.07-.39-.09-.1-.02-.13-.08-.15-.17,0-.06-.03-.12-.03-.19,0-.29,0-.58-.02-.86,0-.07.03-.09.1-.09.22.01.45.03.67.04h1.43-.02Z"/>
      <path class="cls-9" d="M16.71,68.75c.05-.1.1-.2.16-.3.06-.12.12-.24.19-.36.04-.08.04-.19.13-.22.09-.03.16.06.24.1.66.34,1.33.68,1.99,1.03.81.42,1.63.79,2.5,1.08.05.02.1.04.15.06.02,0,.03.02.05.03.02.07-.03.12-.06.17-.08.12-.16.24-.24.36-.12.18-.28.27-.54.19-.6-.18-1.2-.39-1.79-.6-.7-.24-1.36-.57-2.01-.93-.21-.11-.4-.25-.58-.4-.07-.06-.15-.1-.19-.2h0Z"/>
      <path class="cls-9" d="M47.23,70.18c.09-.08.19-.09.28-.12.83-.28,1.62-.63,2.39-1.04.68-.36,1.37-.71,2.06-1.07.06-.03.13-.07.19-.09.02,0,.05.01.07.03,0,0,0,.01.02.02.1.26.24.5.38.74.05.1.05.14-.04.21-.18.15-.36.29-.57.41-.64.37-1.3.7-1.99.95-.58.21-1.17.42-1.76.59-.07.02-.14.04-.21.06-.18.05-.34,0-.45-.15-.13-.18-.25-.37-.37-.56v.02h0Z"/>
      <path class="cls-9" d="M55.84,47.83c-.07-.03-.09-.08-.12-.12-.53-.73-1.05-1.47-1.63-2.16-.06-.08-.05-.13,0-.22.12-.23.27-.43.42-.63.18-.23.36-.45.56-.66.06-.06.09-.07.16,0,.17.16.34.32.48.51.43.59.83,1.2,1.13,1.87.03.07.06.15.09.23.08.26,0,.54-.23.69-.03.02-.07.03-.1.04-.33.02-.54.22-.75.45h-.01Z"/>
      <path class="cls-9" d="M15.36,45.47c-.65.77-1.21,1.58-1.81,2.39-.11-.14-.22-.25-.36-.34-.1-.07-.2-.12-.32-.13-.09,0-.18-.03-.24-.1-.09-.1-.18-.21-.19-.35-.01-.13,0-.25.05-.37.12-.24.23-.49.35-.73.23-.44.52-.84.81-1.25.15-.2.33-.38.51-.55.05-.04.09-.05.14,0,.01,0,.03.02.04.04.34.33.78.93,1.01,1.39,0,0,.01,0,0,0Z"/>
      <path class="cls-9" d="M28.98,72.27c-.15.29-.31.53-.49.77-.09.13-.22.17-.38.13-1.05-.26-2.12-.43-3.13-.81-.19-.07-.39-.15-.58-.23-.07-.03-.13-.06-.19-.1-.12-.08-.18-.19-.14-.34.06-.23.11-.47.16-.71.02-.07.04-.09.12-.06.46.16.92.32,1.38.47.97.32,1.97.57,2.96.82.09.02.17.04.29.07h0Z"/>
      <path class="cls-9" d="M40.41,72.26c.41-.1.82-.2,1.23-.31,1.08-.27,2.14-.61,3.2-.98.09-.03.19-.12.28-.06.07.05.05.17.07.25.05.18.08.37.13.55.03.1,0,.18-.08.24-.07.05-.15.11-.23.15-.19.1-.39.18-.6.25-.71.24-1.43.43-2.16.59-.3.06-.6.13-.89.2-.05.01-.11.02-.16.03-.11.02-.19-.01-.27-.1,0,0,0-.01-.02-.02-.13-.14-.41-.58-.5-.8h0Z"/>
      <path class="cls-9" d="M12.01,50.16c-.57.99-1.07,1.97-1.54,2.97-.07.02-.1-.03-.14-.06-.11-.09-.22-.19-.32-.29-.07-.06-.13-.13-.18-.2-.18-.22-.24-.47-.14-.75.15-.42.29-.83.46-1.24.14-.34.27-.69.41-1.03.1-.24.08-.24.29-.1.13.08.26.16.39.25.25.16.5.32.79.45,0,0-.02,0-.02,0Z"/>
      <path class="cls-9" d="M58.72,49.36s.05.06.06.1c.29.74.6,1.48.86,2.24.02.05.03.1.05.15.09.26.04.5-.12.71-.05.07-.12.14-.18.2-.14.13-.29.26-.44.39-.06-.02-.07-.07-.09-.11-.44-.93-.9-1.84-1.41-2.73-.02-.03-.04-.06-.05-.09-.02-.04,0-.07.03-.09.44-.21.83-.5,1.25-.75,0,0,.02,0,.05-.02h-.01Z"/>
      <path class="cls-9" d="M8.16,58.21c-.02-.19.03-.38.06-.56.1-.69.26-1.36.48-2.02.06-.18.14-.35.24-.51.09-.14.13-.15.29-.11h.03c.14.05.29.08.42.17.04.16-.04.3-.08.44-.18.75-.3,1.5-.33,2.27-.01.4.01.79.07,1.19.01.08.02.16.02.24,0,.04-.03.07-.07.06-.31-.07-.61-.17-.88-.34-.11-.07-.15-.18-.18-.29-.05-.17-.08-.35-.07-.53h0Z"/>
      <path class="cls-9" d="M60.58,55.58c.03.22.06.44.21.62.08.09.12.2.15.31.12.51.21,1.02.27,1.54.03.24,0,.48-.08.72-.04.14-.12.23-.24.31-.24.14-.51.22-.78.3-.08.02-.11,0-.09-.1.09-.54.1-1.08.08-1.62-.03-.59-.13-1.16-.25-1.73-.05-.22-.11-.44-.16-.65,0-.05,0-.09.05-.11.16-.06.32-.11.48-.17.09-.03.16,0,.2.09l.12.21c.05.09.11.17.04.28Z"/>
      <path class="cls-9" d="M16,24.1c.12.76.29,1.51.53,2.25.08.24.18.46.28.7-.23.23-.51.38-.77.58-.12-.14-.24-.28-.35-.42-.11-.13-.21-.27-.32-.4-.05-.06-.07-.12-.05-.2.18-.8.3-1.62.55-2.41,0-.02.01-.03.02-.05.03-.03.04-.08.1-.05h0Z"/>
      <path class="cls-9" d="M18.97,41.62c-.68.63-1.33,1.27-1.96,1.96-.18-.21-.32-.43-.47-.64-.02-.03-.04-.06-.05-.1-.09-.22-.07-.31.11-.48.02-.02.04-.03.06-.05.44-.31.88-.62,1.36-.88.17-.09.35-.18.54-.24.12-.03.13-.03.2.08.07.11.14.23.21.34h0Z"/>
      <path class="cls-9" d="M51.07,41.31s.07.03.11.05c.24.11.48.25.7.4.26.17.51.34.76.52.02.02.04.03.07.05.26.2.28.3.12.62-.02.05-.06.09-.09.13-.12.16-.22.32-.36.46-.19-.09-.28-.27-.42-.4-.49-.47-.96-.98-1.47-1.43,0,0-.03-.02-.04-.03-.03-.04-.04-.08,0-.12.03-.02.05-.06.08-.07.16-.06.32-.11.48-.17h.07,0Z"/>
      <path class="cls-9" d="M9.49,59.96c.02.06.05.11.06.16.24.83.56,1.63.98,2.38.02.03.03.06.04.1,0,.03,0,.05-.03.06-.07.03-.14.04-.21.03-.26-.04-.5-.15-.72-.28-.07-.04-.12-.11-.16-.18-.03-.06-.05-.11-.07-.17-.2-.54-.37-1.08-.51-1.64v-.03c-.04-.19-.03-.2.16-.27.15-.05.3-.1.46-.16Z"/>
      <path class="cls-9" d="M58.97,62.7s-.09-.02-.14-.04c-.03,0-.04-.04-.03-.07,0-.03.02-.05.03-.07.43-.77.76-1.58,1-2.43,0-.03.02-.05.03-.08.02-.04.05-.05.09-.03.16.06.32.11.48.17.09.03.11.07.1.16,0,.08-.03.16-.05.24-.13.5-.29,1-.47,1.49-.09.26-.25.43-.51.51-.14.04-.26.12-.41.14-.04,0-.07,0-.12.02h0Z"/>
      <path class="cls-33" d="M37.61,72.64c.71-.05,1.41-.15,2.1-.25.02.02.04.03.04.05.12.46.14.43-.31.52-.35.07-.71.13-1.06.19-.04,0-.07,0-.11.01-.35.03-.57-.14-.67-.53h.01Z"/>
      <path class="cls-29" d="M31.79,72.64c-.06.19-.16.32-.27.43-.08.07-.16.1-.27.1-.18,0-.36-.04-.53-.06-.29-.05-.58-.1-.87-.16-.3-.06-.31-.08-.25-.39v-.03c.03-.12.05-.14.16-.12.16.02.32.04.48.06.51.07,1.01.13,1.55.17Z"/>
      <path class="cls-9" d="M56.15,48.25c.18-.08.37-.16.55-.23.08.04.12.1.16.15.18.24.33.49.49.74.15.23.08.45-.04.66-.04.06-.1.1-.17.13-.02,0-.05,0-.07-.02s-.03-.04-.05-.06c-.28-.42-.56-.84-.84-1.25-.02-.03-.04-.06-.04-.11h0Z"/>
      <path class="cls-33" d="M13.24,48.26c-.01.09-.06.13-.1.18-.25.37-.5.75-.75,1.12-.02.04-.04.08-.07.11-.02.03-.06.04-.1.02-.07-.04-.14-.08-.18-.16-.11-.21-.15-.42-.01-.64.16-.26.32-.52.51-.76.07-.09.16-.12.26-.07.14.06.28.12.43.18v.02h.01Z"/>
      <path class="cls-23" d="M36.55,44.16c-.44.1-.88.2-1.32.25-.36.04-.72.04-1.08,0s-.71-.11-1.06-.19l-.21-.06c.15-.14.33-.05.5-.05.52-.03,1.04-.06,1.56-.08h.62c.31,0,.63.03.94.04.03.02.09.03.05.09Z"/>
      <path class="cls-29" d="M53.87,26.85c.34-.85.55-1.74.7-2.65.06,0,.05.04.06.07,0,.02.02.05.03.08.07.24.15.48.21.72.03.12.03.25.05.37,0,.08-.04.14-.08.19-.19.27-.38.54-.58.81-.11.15-.22.3-.34.46-.05.01-.08,0-.05-.06h0Z"/>
      <path class="cls-29" d="M16.66,67.57c-.19.21-.39.37-.63.47-.1.04-.19.05-.28,0-.18-.1-.35-.21-.5-.36-.05-.05-.05-.1-.01-.17.1-.14.19-.28.28-.43.03-.05.07-.07.13-.03.22.12.45.23.67.34.11.06.22.12.33.18h.01Z"/>
      <path class="cls-29" d="M52.72,67.56c.34-.17.67-.34,1.01-.51.05-.02.09-.02.11.02.1.15.2.3.3.45.04.06.02.12-.02.17-.15.16-.33.28-.52.37-.07.03-.14.03-.21,0-.23-.08-.48-.26-.66-.5h0Z"/>
      <path class="cls-29" d="M52.87,44.14c.11-.15.26-.26.39-.38.05-.05.09-.03.14,0,.33.23.44.52.35.91-.02.09-.06.17-.09.25-.02.05-.06.03-.09,0-.1-.11-.2-.23-.3-.34-.13-.15-.26-.3-.39-.45h0Z"/>
      <path class="cls-29" d="M15.76,44.97c-.17-.25-.16-.51-.13-.78.02-.15.13-.25.24-.34.2-.17.18-.14.35,0,.08.07.16.15.24.22.01,0,.02.03.04.06-.05.1-.15.18-.23.28s-.16.19-.25.28c-.08.09-.15.2-.26.27h0Z"/>
      <path class="cls-29" d="M59.53,54.63c-.08-.13-.37-.86-.44-1.13.14-.03.28-.06.42-.09.06,0,.1.02.12.08.05.14.1.29.17.43.12.23.02.42-.11.6-.04.05-.09.09-.15.11h0Z"/>
      <path class="cls-29" d="M9.87,54.64c-.21-.1-.27-.28-.33-.46-.02-.05,0-.09.01-.13.05-.14.1-.29.16-.43.1-.24.05-.24.35-.17.07.02.16,0,.24.08-.14.36-.28.73-.43,1.11Z"/>
      <path class="cls-9" d="M63.07,35.46c.24-.15.49-.3.73-.46.14-.09.29-.13.45-.16.05,0,.07.02.08.05.02.09.04.18.05.26.01.09,0,.12-.09.13-.28.06-.56.11-.84.17-.11.02-.21.04-.32.06-.06.02-.07,0-.06-.06h0Z"/>
      <path class="cls-9" d="M6.64,35.67c-.4-.09-.81-.17-1.21-.26-.07,0-.09-.05-.08-.11.02-.12.04-.24.07-.39.22.11.4.25.6.37s.41.23.61.34c.02,0,.03.02.02.03,0,0,0,.02-.01.02Z"/>
      <path class="cls-30" d="M23.35,70.73c-.17.1-.35.13-.54.02-.05-.03-.12-.04-.18-.07-.09-.04-.1-.06-.07-.16.01-.03.02-.07.03-.1.02-.05.05-.08.1-.06.25.08.5.16.78.28,0,0,.01,0,.02,0,0,0-.1.06-.14.08Z"/>
      <path class="cls-5" d="M45.9,70.65c.04-.08.12-.07.17-.1.15-.06.31-.1.45-.16.24-.1.22-.03.29.16.02.05,0,.09-.04.11-.04.02-.08.03-.12.05-.26.15-.51.12-.75-.07h0Z"/>
      <path class="cls-27" d="M33.38,44.11h-.33c-.06,0-.12,0-.17.05-.09-.02-.19-.04-.31-.07.24-.06.56-.05.82,0h0v.02Z"/>
      <path class="cls-16" d="M36.55,44.16s-.03-.06-.05-.09c.08-.02.15-.02.24.02-.06.05-.11.09-.19.08h0Z"/>
      <path class="cls-9" d="M63.07,35.46l.06.06s-.09.05-.14.05c-.02,0-.04,0-.05-.02,0-.03,0-.04.04-.05s.06-.03.1-.04h-.01Z"/>
      <path class="cls-7" d="M16,24.1s-.07.04-.1.05c-.02-.08.04-.13.06-.2.06.05.05.1.04.15Z"/>
      <path class="cls-9" d="M6.64,35.67v-.04c.05,0,.08.03.12.05v.02s-.02.02-.03.02c-.04,0-.07,0-.08-.05h-.01Z"/>
      <path class="cls-32" d="M53.55,16.85v.06s-.05-.04-.05-.08c0,0,.02-.01.03-.02,0,.01,0,.03.02.04Z"/>
      <path class="cls-31" d="M17.52,15.93v-.06s.01-.02.02-.04c.01,0,.03.02.03.02,0,.03-.01.06-.05.08Z"/>
      <path class="cls-28" d="M49.42,20.07c-.02.36,0,.68-.05.99-.13.91-.3,1.81-.73,2.64-.13.25-.28.48-.49.67-.07.07-.13.15-.2.22-.26.27-.55.49-.9.64-.51.22-1.03.23-1.56.08-.37-.1-.71-.26-1.04-.45-.79-.45-1.44-1.05-2-1.75-.58-.71-.96-1.52-1.23-2.39-.2-.66-.32-1.33-.39-2.01-.07-.64-.07-1.28-.04-1.92.03-.6.13-1.2.29-1.78.12-.42.29-.81.55-1.17.5-.71,1.19-1.08,2.06-1.11.6-.02,1.16.12,1.7.35.86.37,1.58.94,2.18,1.65.7.82,1.2,1.75,1.51,2.78.11.37.18.75.24,1.13.08.48.1.97.11,1.41v.02h0Z"/>
      <path class="cls-28" d="M35.32,22.58c.49-.03.97.12,1.43.35.84.42,1.58.97,2.31,1.55.58.47,1.15.96,1.72,1.44.05.04.1.07.17.08.29.03.57.07.86.11.45.06.89.15,1.32.29.07.02.14.05.2.09.26.15.32.43.14.66-.07.09-.15.16-.24.22-.15.11-.3.2-.46.27-.15.07-.28.16-.37.3-.18.25-.4.46-.61.69-.49.54-1.07.96-1.7,1.32-1.06.61-2.18,1.11-3.33,1.53-.35.13-.7.22-1.07.27-.43.06-.84,0-1.26-.1-.32-.08-.62-.18-.92-.3-.94-.38-1.87-.79-2.77-1.28-.47-.26-.91-.55-1.32-.89-.39-.31-.72-.69-1.05-1.06-.03-.03-.06-.07-.08-.11-.13-.18-.29-.32-.49-.41-.16-.07-.3-.17-.44-.27-.1-.07-.18-.15-.24-.25-.12-.2-.08-.44.11-.57.08-.06.17-.1.27-.13.43-.13.87-.23,1.32-.29.28-.03.55-.07.83-.11.08,0,.13-.04.19-.09.58-.49,1.16-.98,1.74-1.46.49-.4,1.01-.76,1.53-1.11.3-.2.62-.37.95-.51.44-.19.78-.27,1.28-.25,0,0-.02.02-.02.02Z"/>
      <path class="cls-28" d="M29.81,17.52c0,1.21-.16,2.39-.56,3.53-.58,1.66-1.63,2.93-3.14,3.82-.38.23-.79.4-1.22.49-.59.11-1.15.04-1.66-.29-.25-.16-.48-.34-.68-.57-.02-.03-.05-.06-.07-.08-.35-.31-.57-.72-.73-1.15-.21-.54-.35-1.1-.44-1.67-.13-.78-.17-1.56-.1-2.34.17-2.05.96-3.81,2.5-5.2.62-.56,1.32-.96,2.13-1.18.56-.15,1.12-.19,1.68-.05.6.15,1.07.5,1.43,1,.27.38.45.8.58,1.24.04.14.08.28.12.42,0,.05.03.1.04.16.04.5.14,1,.14,1.51v.38s-.02-.02-.02-.02Z"/>
      <path class="cls-28" d="M48.02,27.23c.04-.89.39-1.59,1.17-2.06.74-.44,1.77-.38,2.5.3.42.4.66.89.74,1.46.08.66-.07,1.25-.47,1.78-.95,1.25-2.79,1.14-3.6-.24-.22-.38-.33-.79-.33-1.24h0Z"/>
      <path class="cls-28" d="M22.56,27.23c-.02.86-.36,1.55-1.09,2.02-.79.51-1.87.44-2.61-.28-.42-.4-.65-.9-.71-1.47-.07-.66.09-1.25.5-1.77.93-1.19,2.72-1.12,3.56.24.24.38.35.81.35,1.26Z"/>
      <path class="cls-26" d="M40.83,11.98c-.09,0-.18-.03-.25-.08-.06-.05-.08-.11-.07-.19,0-.07.06-.11.12-.13.31-.07.59-.22.88-.33.4-.15.74-.4,1.06-.69.21-.19.42-.4.59-.63.05-.08.11-.15.22-.11.08.03.11.12.08.26-.02.07-.03.14-.06.21-.38.86-.99,1.44-1.95,1.6-.13.02-.26.05-.4.08-.07.01-.14.02-.21.03v-.02h-.01Z"/>
      <path class="cls-9" d="M42.71,53.31c-.29.04-.59.08-.88.13-.72.12-1.44.24-2.16.36-.04,0-.07,0-.11.02-.04,0-.06.04-.06.08v.05c.05.38.09.77.15,1.15.04.23-.02.43-.15.61-.15.2-.34.38-.53.54-.09.08-.2.12-.31.15-.16.05-.33.09-.49.14-.31.1-.61-.04-.73-.34-.1-.25-.24-.48-.36-.72-.04-.08-.09-.14-.18-.19-.24-.13-.4-.34-.43-.62,0-.14-.07-.25-.17-.35-.22-.23-.28-.52-.24-.83.02-.11.06-.21.13-.29.25-.3.48-.61.71-.92.15-.2.37-.31.63-.32.23,0,.47-.03.7-.05.77-.05,1.52-.19,2.23-.49.17-.07.33-.15.51-.19.07,0,.1-.07.1-.14,0-.14,0-.29-.03-.43-.03-.15-.14-.25-.24-.34-.02-.02-.05,0-.08,0-.12,0-.23,0-.35.05-.33.11-.67.22-1,.32-.04,0-.09.03-.13.04-.35.07-.63-.08-.73-.43-.07-.21-.12-.43-.16-.65-.05-.3,0-.58.25-.78.05-.04.08-.09.1-.15.09-.28.29-.44.58-.52.87-.23,1.74-.48,2.6-.71.07-.02.14-.04.21-.07-.03-.06-.06-.12-.1-.17-.05-.08-.08-.16-.09-.25-.02-.23-.03-.47-.02-.7,0-.11.05-.21.1-.3.21-.32.48-.53.88-.55h.46c.15,0,.31,0,.46-.03.19-.03.36,0,.52.09.24.13.47.26.71.4.22.13.35.33.38.59.04.29.08.59.12.88,0,.1.02.12.14.12.36.02.72.04,1.08.05.69.02,1.38.08,2.07.15.65.07,1.29.16,1.92.29.44.09.87.23,1.29.39.28.11.44.33.5.62v.11c0,.34-.28.9-.78.98-.35.06-.69.11-1.04.16-.18.03-.36.05-.54.06-.29,0-.57-.05-.86-.09-.07,0-.14-.04-.21,0,0,.09.02.18,0,.27-.02.21-.13.37-.33.46-.06.03-.12.04-.18.07-.02,0-.04.03-.04.06s.04.03.06.03h.03c.39.03.77.07,1.16.1.84.06,1.67.14,2.5.26.51.07,1.02.13,1.53.18.79.08,1.57.23,2.32.51.08.03.15.05.23.08.29.11.48.31.56.61.04.14.07.28.12.41.1.31,0,.55-.27.75-.16.11-.26.27-.38.42-.03.04-.03.1-.04.15-.05.21-.1.42-.16.63-.08.29-.25.52-.45.73-.15.16-.34.23-.55.26-.25.03-.5.05-.75.08-.12,0-.23,0-.35-.04-.1-.04-.21-.06-.31-.09-.19-.05-.36-.12-.49-.26-.04-.05-.1-.08-.15-.11-.18-.14-.29-.32-.31-.55,0-.25,0-.5-.03-.76,0-.13.03-.27.06-.4.03-.13-.04-.23-.11-.32-.02-.02-.06-.04-.09-.04-.06,0-.12-.02-.19-.03-.53-.06-1.06-.11-1.59-.17-.08,0-.16,0-.24-.02s-.16-.05-.24,0c.14.13.24.29.33.46.06.1.14.18.26.23.29.12.42.36.44.66v.57c0,.18-.04.34-.14.49-.06.09-.09.18-.09.28,0,.33-.09.64-.22.94-.07.17-.14.33-.21.5-.25.54-.87.83-1.44.67-.16-.05-.33-.1-.49-.15-.15-.05-.28-.13-.38-.25-.07-.08-.14-.16-.21-.25-.1-.12-.19-.24-.36-.26-.56-.27-.58-.86-.28-1.19.13-.14.24-.29.37-.43.08-.08.09-.16.05-.27-.04-.1-.09-.14-.19-.15-.3,0-.59-.04-.89-.06-.12,0-.23-.02-.35-.02-.05,0-.08.03-.09.08-.02.22-.05.45-.05.67-.02.87.03,1.75.08,2.62.02.37.02.74.02,1.11v1.6c0,.71-.17,1.37-.5,2-.07.13-.12.25-.12.4,0,.21-.12.37-.3.48-.09.05-.17.09-.26.14-.33.17-.68-.02-.79-.29-.27-.69-.47-1.4-.45-2.15,0-.18.03-.36.03-.54.02-.7-.04-1.39-.21-2.06-.19-.79-.2-1.59-.14-2.39.03-.43-.02-.86-.11-1.29-.04-.16-.05-.17-.22-.15-.09,0-.11.03-.11.12v.08c0,.22,0,.43-.05.65-.03.14-.03.29-.03.43,0,.52-.23.89-.65,1.17-.15.1-.32.16-.5.18-.21.02-.41.04-.62.07-.13,0-.25.02-.37-.05-.19-.1-.3-.25-.33-.47-.05-.36-.1-.71-.15-1.07v-.38c0-.07,0-.14.03-.21.02-.11,0-.21-.08-.3-.13-.17-.21-.36-.28-.55-.04-.11-.06-.23-.07-.34,0-.41.22-.7.61-.81.5-.14,1-.3,1.5-.45.16-.05.31-.1.46-.15.05-.04.11-.08.18-.06-.13.02-.26-.04-.4,0l.05-.04h.03Z"/>
      <path class="cls-9" d="M26.86,59.47h-.04s-.08.03-.12.03h-.24c.08.02.16,0,.24,0,.04,0,.08,0,.12.02.82.09,1.64.22,2.46.34.59.08,1.18.17,1.77.24.45.05.9.09,1.35.13.57.05,1.15.09,1.73.13.24.02.44.12.58.31.2.26.36.54.5.83.12.25.06.5-.11.71-.2.24-.43.46-.68.65-.12.1-.27.14-.43.14h-1.81c-.07,0-.14,0-.21-.02-.3-.06-.6-.13-.9-.2-.16-.04-.31-.09-.42-.23-.04-.05-.09-.08-.16-.09-.49-.06-.97-.21-1.45-.31-.38-.08-.76-.13-1.15-.12-.51,0-1.01-.06-1.5-.15-.43-.08-.87-.17-1.31-.19h-.3c-.06,0-.14,0-.18-.03-.16-.1-.3-.05-.46,0-.25.08-.51.12-.77.04-.09-.03-.2,0-.3,0-.13,0-.25,0-.37-.07-.09-.05-.17-.05-.26-.03-.36.09-.72.18-1.07.28-.15.04-.3.04-.45,0-.27-.09-.55-.17-.83-.25-.09-.03-.17-.03-.26,0-.39.12-.79.17-1.2.17-.28,0-.53.08-.78.19-.06.03-.11.07-.15.11-.15.14-.32.24-.5.32-.28.13-.55.26-.83.39-.09.04-.16.1-.22.19-.11.18-.28.28-.48.33-.11.03-.23.06-.34.1-.17.06-.34.05-.49-.05-.07-.04-.14-.08-.21-.13-.17-.11-.3-.26-.37-.45-.11-.32-.22-.65-.33-.97-.12-.34.06-.96.43-1.16.42-.22.85-.4,1.32-.47.41-.07.82-.11,1.23-.16.14-.02.29-.04.43-.07.08,0,.1-.05.07-.14-.06-.18-.12-.36-.18-.54-.03-.09-.05-.17-.08-.26-.07-.22-.03-.43.08-.63.08-.15.17-.3.26-.44.11-.19.27-.34.46-.45.09-.06.1-.09.06-.21-.08-.22-.17-.44-.26-.65-.06-.14-.1-.29-.1-.44,0-.09.01-.18.06-.26.14-.24.28-.48.42-.72.04-.07.1-.13.15-.19-.02-.02-.04-.04-.06-.05-.23-.13-.33-.33-.34-.58,0-.16-.06-.29-.16-.41-.17-.22-.2-.5-.23-.77-.03-.3-.04-.59-.06-.89-.01-.19-.03-.38-.06-.56-.02-.13-.06-.25-.13-.35-.23-.31-.38-.65-.46-1.03-.03-.12-.07-.24-.17-.33-.06-.06-.11-.15-.14-.23-.09-.22-.14-.45-.15-.68-.01-.2.06-.39.21-.54.08-.07.17-.14.26-.2.86-.56,1.72-1.13,2.58-1.69.13-.08.19-.18.22-.32,0-.04.01-.09.02-.13.07-.34.3-.56.65-.59.18-.02.36,0,.54,0,.07,0,.14.02.21.04.23.08.44.22.63.37.1.08.17.19.22.31.1.23.19.47.3.7.07.15.08.31.1.47h1.19c1.25,0,2.47.21,3.68.54.52.14.97.42,1.39.75.18.15.3.33.34.57,0,.07.03.14.05.21.04.21.04.41-.04.61-.09.25-.18.51-.27.76-.03.08-.06.15-.09.22-.06.14-.22.2-.28.32-.06.13-.06.28-.15.4-.05.07-.08.14-.09.22-.07.41-.21.8-.41,1.17-.07.12-.1.24-.08.39.04.31,0,.61-.04.92-.03.27-.16.49-.38.66-.1.08-.09.08-.04.2.07.16.15.33.16.51,0,.09,0,.19-.02.27-.12.32-.22.65-.52.86,0,.07.07.08.11.1.09.04.19.07.27.13.18.11.31.28.35.49.03.16.06.32.09.48.09.43-.08.75-.41,1.01-.03.02-.06.04-.09.06-.02,0-.04.03-.07.04,0,0-.05,0-.05,0Z"/>
      <path class="cls-2" d="M42.71,53.31c.15-.07.3-.06.45-.04,0,.05-.02.05-.05.06-.06.02-.11.06-.18.04-.06-.08-.15-.02-.22-.06Z"/>
      <path class="cls-13" d="M50.45,53.48s-.03,0-.04-.02c0,0,0-.04.02-.04.09,0,.18,0,.27.04h-.24v.02h0Z"/>
      <path class="cls-21" d="M26.72,59.49h.1v.05h-.11s-.03-.02-.02-.03h.03v-.02Z"/>
      <path class="cls-21" d="M26.86,59.47s.04-.04.07-.04c-.02.03-.04.04-.07.04Z"/>
      <path class="cls-9" d="M46.34,14.69c-.17-.03-.33-.07-.51-.08-.58-.03-.99.22-1.24.73-.15.3-.22.62-.24.96-.03.6.04,1.19.17,1.77.19.88.49,1.71.96,2.48.33.55.73,1.05,1.24,1.45.17.13.35.25.54.35.25.13.5.19.78.12.03,0,.07-.01.1-.02.06.06,0,.11,0,.15-.13.55-.38,1.03-.79,1.42-.29.28-.62.49-1.04.52-.19.02-.38,0-.56-.05-.27-.07-.53-.18-.77-.32-.38-.21-.74-.45-1.06-.75-.86-.78-1.49-1.7-1.84-2.82-.2-.62-.32-1.25-.4-1.9-.03-.29-.05-.57-.07-.86-.04-.75.02-1.49.16-2.23.06-.32.15-.63.29-.93.09-.2.19-.39.33-.55.31-.37.7-.58,1.18-.62.55-.04,1.07.07,1.57.3.45.2.87.46,1.24.8,0,.05,0,.08-.06.06,0,0,.02.02.02.02Z"/>
      <path id="_パス_right" data-name=" パス right" class="cls-8" d="M48.32,19.87c0,.45,0,.86-.08,1.26-.03.16-.07.31-.15.46-.1.18-.22.25-.45.16-.18-.07-.35-.19-.51-.31-.43-.33-.76-.74-1.04-1.19-.4-.65-.69-1.34-.87-2.08-.12-.49-.23-.98-.23-1.49,0-.26,0-.52.07-.78.04-.13.09-.26.16-.37.12-.2.3-.3.54-.3.07,0,.14,0,.22.02.48.08.89.32,1.29.59.11.07.18.2.23.33.14.34.28.68.41,1.02.24.62.36,1.26.4,1.92.02.27.02.54.03.76,0,0-.02,0-.02,0Z"/>
      <path class="cls-22" d="M46.34,14.69s.04-.04.06-.06c.03.02.06.03.08.05,0,0,.02.03,0,.04,0,.01-.03.02-.04.02-.04,0-.08-.01-.11-.05h0Z"/>
      <path class="cls-20" d="M42.38,26.93c-.03.1-.11.11-.16.13-.65.31-1.34.53-2.04.71-.37.1-.75.2-1.13.28-.45.09-.91.15-1.36.22-.52.08-1.04.11-1.56.11-.24,0-.47.04-.7.08-.1.02-.19.01-.29,0-.22-.03-.45-.07-.67-.07-.74,0-1.47-.1-2.2-.21-1-.15-1.97-.42-2.93-.72-.35-.11-.69-.26-1.02-.42-.02-.01-.05-.02-.07-.03,0,0-.02-.03-.02-.05s0-.03.03-.03c.25-.06.51-.11.76-.17.22-.05.43-.12.64-.2.13-.06.26-.12.35-.24.04-.06.11-.1.17-.13.6-.35,1.16-.76,1.73-1.16.49-.35.99-.7,1.5-1.01.36-.22.73-.43,1.14-.55.61-.19,1.21-.16,1.79.11.41.19.8.4,1.18.65.67.44,1.31.92,1.98,1.37.31.21.61.42.93.6.06.04.12.07.17.13.08.11.2.18.33.23.21.09.42.16.64.21.27.06.54.12.83.18,0,0-.02-.02-.02-.02Z"/>
      <path class="cls-20" d="M29.43,28.31c.42.12.85.23,1.27.35.55.16,1.11.25,1.67.31.39.05.78.11,1.18.12h.62c.18,0,.36.01.54.02h.05c.39-.01.77.02,1.16-.01.18-.01.36-.02.54-.01.55,0,1.1-.05,1.64-.11,1.03-.11,2.01-.38,3-.68.03-.01.07-.02.1-.03h.03c0,.06-.05.09-.08.12-.44.37-.93.69-1.43.97-1.01.57-2.05,1.05-3.13,1.46-.3.11-.62.2-.93.26-.33.06-.64.03-.96-.04-.38-.09-.74-.21-1.1-.36-.86-.35-1.7-.74-2.52-1.18-.48-.26-.93-.56-1.37-.87-.13-.09-.26-.19-.37-.32.02-.03.05-.03.08-.01h.01Z"/>
      <path class="cls-11" d="M29.43,28.31s-.05,0-.08.01c-.03,0-.05,0-.05-.04,0,0,.03-.02.04-.02.04,0,.07.01.09.05Z"/>
      <path class="cls-9" d="M27.31,22.7s0,.06-.02.08c-.56.66-1.21,1.2-2.01,1.56-.23.1-.47.18-.72.21-.32.03-.63-.03-.91-.2-.45-.27-.78-.66-1-1.14-.16-.34-.25-.71-.32-1.08-.13-.69-.17-1.39-.17-2.1,0-.57.02-1.14.07-1.7.08-.81.32-1.57.7-2.28.06-.12.16-.22.24-.32.33-.45.7-.87,1.14-1.22.5-.39,1.04-.7,1.66-.87.33-.09.67-.12,1.02-.1.52.03.92.27,1.24.68.04.05.07.1.11.16.02.04.04.08.06.11-.02.02-.03.04-.04.04-.4.08-.73.29-1.04.55-.21.18-.39.38-.55.59-.59.78-.98,1.65-1.19,2.61-.15.69-.23,1.39-.16,2.09.04.4.11.78.26,1.15.08.19.18.37.31.54.31.4.72.62,1.23.64.03,0,.07,0,.09,0Z"/>
      <path id="_パス_left" data-name=" パス left" class="cls-8" d="M28.98,17.46c-.03,1.17-.17,2.33-.58,3.44-.07.19-.15.37-.22.55-.04.11-.11.18-.21.23-.16.09-.33.18-.52.22-.35.07-.64-.04-.86-.31-.2-.24-.29-.53-.35-.84-.11-.57-.11-1.14-.02-1.72.09-.54.2-1.08.4-1.59.19-.51.46-.98.77-1.42.17-.24.37-.44.62-.59.05-.03.11-.07.16-.09.1-.05.22-.14.33-.08.15.08.28.19.31.38.04.27.1.53.13.8.03.34.06.68.05,1.03h-.01,0Z"/>
      <path class="cls-19" d="M50.21,28.72c-.33,0-.63-.13-.88-.37-.56-.55-.6-1.49-.11-2.09.56-.68,1.54-.66,2.06.05.48.65.37,1.55-.18,2.07-.25.23-.54.35-.9.35h.01Z"/>
      <path class="cls-19" d="M21.7,27.28c0,.25-.07.53-.23.79-.5.81-1.58.87-2.16.12-.48-.64-.4-1.54.15-2.07.5-.49,1.27-.49,1.78,0,.31.3.46.68.47,1.17h-.01Z"/>
      <path class="cls-28" d="M47.38,52.61c-.27.03-.54,0-.81,0-.22,0-.43-.03-.65-.05-.07,0-.1.02-.1.09,0,.25,0,.5.02.77h.48c.69-.03,1.39,0,2.08.06.2.02.39.06.58.11.33.09.65.21.99.28.1.02.18.08.23.17.1.17.21.33.32.5.04.06.08.1.17.1.17,0,.23.06.24.22,0,.16,0,.32.02.49,0,.1-.02.2-.1.27-.09.08-.12.18-.11.29,0,.53-.19,1-.41,1.47-.13.27-.48.43-.78.35-.16-.04-.31-.1-.46-.14-.09-.03-.15-.09-.21-.16-.12-.15-.25-.31-.38-.46-.06-.07-.12-.13-.23-.12-.03,0-.07,0-.11-.02-.12-.05-.16-.18-.08-.29.05-.06.11-.12.16-.18.15-.17.29-.35.43-.52.06-.08.08-.16.05-.25-.08-.25-.17-.49-.26-.74,0-.04-.05-.05-.08-.06h-.08c-.68-.04-1.37-.08-2.05-.12-.12,0-.14,0-.16.13-.06.43-.11.86-.11,1.29v1.14c.02.59.05,1.19.08,1.78,0,.28.02.56.02.84v1.43c0,.62-.14,1.21-.43,1.77-.07.14-.15.26-.24.39-.05.08-.04.17.03.26-.08.05-.16.09-.26.15-.17-.44-.35-.87-.39-1.35,0-.15-.03-.3-.04-.46v-.22c.06-.59.04-1.17-.02-1.75-.03-.31-.1-.62-.17-.93-.16-.69-.19-1.39-.12-2.09.04-.42,0-.83-.05-1.24-.04-.3-.12-.6-.24-.88-.06-.05-.13-.03-.19-.03h-.89c-.16,0-.17,0-.17.16v.22c0,.31,0,.63-.05.94-.03.17-.02.34-.03.51-.02.47-.31.76-.78.8-.16,0-.32.04-.48.06-.07,0-.11,0-.11-.08-.05-.34-.09-.68-.14-1.02v-.19c0-.14.02-.29.05-.43.04-.17,0-.31-.12-.44-.12-.12-.19-.28-.25-.44-.03-.08-.05-.16-.06-.23-.02-.14.04-.21.18-.26.59-.18,1.17-.36,1.76-.53.22-.06.43-.12.65-.18.08-.02.13-.06.16-.16.09-.27.2-.54.3-.81.03-.08,0-.12-.08-.12-.52,0-1.04,0-1.56.1-.61.11-1.23.2-1.84.31-.45.07-.91.15-1.36.23-.16.03-.16.04-.17.21,0,.3.03.59.07.89.03.24.06.48.09.72.02.12,0,.21-.09.29-.11.11-.21.22-.32.33-.07.07-.15.09-.24.12-.16.04-.31.08-.48.12-.18-.36-.37-.71-.55-1.07-.04-.07-.07-.11-.16-.12-.17-.02-.21-.06-.25-.23,0-.07-.03-.14-.03-.21,0-.14-.03-.24-.16-.32-.05-.03-.09-.08-.14-.13-.11-.13-.13-.34,0-.49.21-.23.4-.49.58-.74.09-.13.2-.19.36-.2.3,0,.59-.03.89-.06.72-.07,1.42-.21,2.09-.49.27-.12.55-.21.84-.28.05,0,.1-.03.17-.06,0-.25,0-.51-.02-.77v-.16c.02-.18-.04-.33-.16-.47-.11-.12-.2-.26-.3-.38-.04-.06-.09-.08-.16-.08h-.46c-.1,0-.19.04-.29.07-.35.11-.7.23-1.05.34-.1.03-.11.02-.15-.08-.07-.18-.1-.36-.14-.55-.04-.17,0-.22.16-.28.06-.02.09-.05.1-.11s.04-.12.05-.18c.02-.14.1-.21.24-.25,1.1-.3,2.2-.61,3.3-.91.07-.02.14-.04.21-.05s.11-.05.11-.13c0-.15-.03-.29-.08-.42-.02-.05-.07-.08-.12-.09-.07,0-.14,0-.21-.03-.13-.03-.19-.11-.2-.26v-.35c0-.24.15-.43.39-.48.08-.02.16-.02.24-.02.27,0,.54,0,.81-.02.08,0,.16,0,.23.05.2.12.41.23.61.34.09.05.13.12.14.22.02.17.05.34.07.51s.04.34.07.51c.02.13.04.25,0,.38.11.06.22.06.32.06.54.02,1.08.04,1.62.07.58.03,1.17.08,1.75.14.46.05.91.11,1.37.18.58.09,1.14.24,1.69.44.03,0,.05.02.07.03.17.08.22.21.14.37-.08.17-.19.29-.4.31-.42.05-.84.13-1.25.19-.29.04-.57-.03-.86-.07-.34-.05-.68-.1-1.01-.16-.06.09-.03.18-.04.27v.22c0,.13,0,.25.13.33.03.02.04.06.03.1-.02.04-.06.03-.09.03h-.05c-.1,0-.17.04-.21.13-.08.16-.17.32-.23.49-.07.17-.17.29-.36.33-.03,0-.07.02-.1.04-.04.02-.05.05-.05.09s.03.07.07.07c.19,0,.38.03.57.04.35.02.7.04,1.05.07.57.04,1.13.08,1.7.14.86.09,1.72.2,2.58.3.37.04.73.1,1.1.14.42.05.83.17,1.23.3.15.05.29.1.43.15.17.05.26.15.28.32,0,.06.03.12.04.18.02.08.06.16.05.23,0,.09-.12.09-.18.15-.12.15-.24.29-.37.43-.09.11-.14.23-.16.36-.03.21-.08.42-.15.63-.06.19-.18.33-.3.47-.07.08-.17.11-.27.12-.21.02-.41.04-.62.06-.09,0-.17,0-.26-.03-.11-.04-.23-.05-.34-.09-.09-.02-.18-.05-.21-.15-.02-.07-.06-.1-.13-.11-.12-.02-.15-.11-.15-.22v-.35c-.04-.25,0-.5.06-.74.03-.11,0-.21-.05-.31-.12-.17-.2-.36-.34-.52-.2-.02-.39-.04-.59-.07-.45-.05-.89-.1-1.34-.14-.66-.06-1.3-.18-1.95-.28-.14-.02-.29-.02-.43-.04-.03,0-.07-.02-.1-.03-.08-.03-.17-.03-.26-.04-.07.02-.14,0-.2,0-.28.05-.56-.02-.84.04,0,0-.04-.03-.04-.03Z"/>
      <path class="cls-14" d="M47.38,52.61s.11-.05.17-.05h.42c.1,0,.19,0,.28-.05.07.04.13.04.2,0,.07.04.17.03.23.1-.09.02-.2-.04-.29.04,0,0-.04.02-.05,0-.32-.11-.64,0-.96-.05h0Z"/>
      <path class="cls-28" d="M22.54,59.85l.75.06c.17,0,.34.03.51.04h.08c.42-.03.84.04,1.27.02.34,0,.68.03,1.02.06.3.02.59.06.89.08.49.04.98.13,1.47.19.61.08,1.21.17,1.82.26.93.14,1.86.2,2.8.27.3.02.59.05.89.07.13,0,.22.06.29.17.12.2.24.4.36.6.04.06.03.12,0,.18-.02.03-.04.06-.07.08-.15.14-.3.28-.45.43-.07.07-.15.09-.24.09h-1.68c-.19,0-.37-.07-.56-.11-.16-.03-.32-.08-.47-.11-.1-.02-.17-.06-.2-.15-.02-.07-.06-.1-.13-.11-.6-.08-1.18-.24-1.77-.36-.38-.08-.76-.13-1.15-.12-.5,0-.99-.06-1.48-.15-.34-.06-.67-.12-1.01-.17-.2-.03-.41-.02-.62-.03-.1,0-.17-.03-.24-.1-.04-.04-.05-.13-.13-.11-.08,0-.16,0-.23.06-.14.14-.34.16-.52.19h-.11c-.16-.05-.32-.04-.48-.04-.11,0-.21,0-.3-.09-.1-.09-.24-.06-.36-.04-.22.05-.44.1-.66.15-.14.03-.29.05-.42.1-.2.09-.38.05-.57,0-.26-.08-.52-.15-.77-.23-.09-.03-.17-.03-.26,0-.38.15-.79.2-1.19.2s-.78.13-1.14.3c-.05.02-.1.05-.13.09-.1.14-.25.21-.39.28-.36.17-.71.34-1.07.51-.1.04-.17.1-.18.21,0,.08-.07.12-.14.14-.13.04-.26.07-.39.1h-.05c-.14-.08-.3-.13-.36-.33-.08-.29-.19-.56-.29-.84-.08-.24,0-.48.23-.6.33-.18.69-.31,1.06-.37.26-.04.52-.07.78-.1.5-.05,1-.15,1.49-.24s.98-.16,1.46-.26c.36-.07.72-.14,1.07-.28.1-.04.17-.09.19-.2.05-.19.13-.37.16-.59-.15-.03-.31,0-.45,0-.21,0-.41,0-.6.11-.03.02-.07.03-.1.04-.27.06-.47.22-.64.43-.11.13-.25.23-.41.3-.14.06-.29.08-.45.05-.16-.03-.26-.11-.31-.26-.08-.26-.17-.51-.26-.77-.04-.12-.03-.23.04-.33.04-.06.08-.12.11-.19.16-.38.49-.56.86-.68.29-.1.6-.13.9-.14.27,0,.54-.03.81-.06.19-.02.38-.02.57-.03.07,0,.1-.04.1-.1v-.37c-.2,0-.35-.12-.51-.22-.17-.1-.34-.12-.52-.05-.46.18-.92.36-1.38.54-.05.02-.1,0-.11-.04-.06-.28-.21-.53-.3-.81-.02-.06-.05-.12-.07-.18s-.01-.12.02-.18c.1-.17.2-.34.29-.52.06-.12.16-.2.29-.23.33-.09.65-.19,1-.18.64.02,1.28-.05,1.91-.12.45-.05.9-.1,1.35-.09h.41c.09,0,.18,0,.25.07.19.16.43.19.66.21.3.03.59.05.89.05.2,0,.39.03.59.06.12.02.24.06.36.12.23.11.34.31.39.55v.13c-.06.14-.12.28-.19.42-.04.09-.13.13-.22.13h-1.18c-.12,0-.18-.06-.18-.19,0-.11-.05-.16-.15-.18-.21-.04-.42-.1-.63-.15-.16-.04-.32-.04-.47.03-.18.08-.37.14-.56.21-.07.03-.12.06-.13.15-.02.21-.07.43-.09.64-.02.15.01.2.15.25.19.07.39.11.61.1.42-.04.84-.04,1.27,0,.37.04.74.05,1.11.06.28,0,.53.11.77.22.07.03.11.09.13.17.03.17.07.33.1.5.03.23-.13.43-.37.43-.43,0-.86,0-1.29-.1-.19-.04-.38-.02-.57,0-.54.05-1.08.1-1.61.15h-.16c-.32.05-.27-.02-.31.31-.02.17-.06.34-.05.52l-.05.04v-.02Z"/>
      <path class="cls-28" d="M21.21,48.1s.12.02.18.02h2.43c.4,0,.81.06,1.21.11.6.08,1.19.21,1.77.36.49.13.92.36,1.31.67.1.08.17.16.18.29,0,.05.02.11.04.16.04.14.02.28-.03.42-.08.21-.16.42-.22.64-.06.18-.11.35-.36.3-.04.16-.09.3-.09.44,0,.08-.03.14-.1.18-.06.03-.09.07-.1.15-.02.44-.17.84-.36,1.23-.02.05-.05.09-.08.14-.09.16-.14.33-.09.52.03.11.03.23,0,.35-.02.11-.02.21-.02.32,0,.26-.1.45-.34.57-.03,0-.06.03-.09.05-.05-.04-.07-.1-.07-.15,0-.11-.07-.16-.16-.2-.5-.2-1.02-.38-1.56-.43-.37-.04-.74-.04-1.11-.02-.93.07-1.85.04-2.78.06-.33,0-.66.05-1,.08-.42.04-.84.07-1.26.11h-.09c-.04-.1-.07-.21-.06-.31.02-.18-.06-.31-.18-.43-.07-.07-.11-.14-.13-.23-.04-.15-.07-.3-.08-.45-.02-.33-.03-.67-.06-1-.01-.15-.03-.31-.06-.45-.04-.17-.09-.35-.21-.49-.25-.31-.35-.69-.44-1.06-.01-.06-.03-.12-.04-.19,0-.06-.03-.1-.1-.11-.09,0-.14-.08-.16-.16-.04-.14-.06-.28-.09-.42-.02-.09.02-.16.09-.21.13-.08.26-.17.38-.25.83-.54,1.66-1.08,2.48-1.63.13-.08.21-.19.24-.33.02-.1.04-.21.07-.32.03-.15.07-.18.21-.2.33-.06.62.04.88.24.05.04.09.09.11.15.1.23.2.46.3.69.05.11.03.21-.05.3-.11.12-.21.25-.3.38-.02.03-.07.06-.05.12h.04Z"/>
      <path class="cls-4" d="M24.36,56.99c-.3,0-.61,0-.91.02-.04,0-.07,0-.07-.06,0-.02.01-.06.03-.07.19-.09.38-.22.61-.12.07.03.16.04.23.06.08.02.12.08.11.17Z"/>
      <path class="cls-6" d="M26.72,59.49v.05c-.08,0-.15.02-.23-.02.08-.04.15-.03.23-.02h0Z"/>
      <path class="cls-25" d="M36.59,26.05h-.08c-.08-.01-.11-.1-.07-.17.08-.11.17-.21.29-.27.25-.13.51-.26.72-.46.02-.02.05-.03.07-.04.1-.05.23.02.24.13,0,.08,0,.16-.06.23-.05.05-.1.11-.15.15-.17.13-.35.25-.55.34-.16.08-.21.09-.41.09Z"/>
      <path class="cls-12" d="M33.95,26.05c-.13,0-.24-.02-.35-.07-.21-.11-.41-.23-.59-.37-.09-.07-.18-.15-.2-.28-.02-.1,0-.16.08-.21.07-.05.14-.03.2.01.02.01.04.03.06.05.18.17.39.28.61.39.14.07.25.17.35.28.03.03.05.08.03.12s-.05.07-.1.07h-.1,0Z"/>
      <path class="cls-9" d="M43.53,51.12c-.28,0-.29,0-.35-.27-.06-.28-.13-.56-.19-.84-.02-.08-.04-.16-.06-.24s-.08-.14-.17-.15c-.1,0-.2-.03-.29-.04-.06,0-.07-.04-.08-.09,0-.06,0-.11.08-.12.36-.06.72-.17,1.09-.2.27-.02.54,0,.81-.02.41,0,.83-.03,1.24-.05.13,0,.23,0,.31.12l.02.02c.26.25.23.15.19.53,0,.09-.03.18-.04.27,0,.15-.06.24-.22.29-.52.17-1.03.37-1.55.56-.13.05-.28.08-.39.18-.04.04-.1.04-.15.05,0,0-.25,0-.25,0Z"/>
      <path class="cls-24" d="M42.02,51.9c-.12,0-.25.02-.37.04-.04,0-.06-.02-.07-.06-.02-.05,0-.1.05-.1.1,0,.19.02.29.03.03.02.08,0,.11.04h0v.05h-.01Z"/>
      <path class="cls-10" d="M41.51,51.97v.02s-.07.02-.1.02c-.02,0-.04-.03-.04-.06s0-.05.05-.05c.06,0,.08.03.1.07h0Z"/>
      <path class="cls-3" d="M48.45,52.51c-.08.07-.12.07-.2,0,.07-.02.13,0,.2,0Z"/>
      <path class="cls-1" d="M42.03,51.85s-.08,0-.11-.04c.04,0,.08,0,.11.04Z"/>
      <path class="cls-1" d="M42.02,51.9v-.05s.05,0,.04.04h-.04Z"/>
      <path class="cls-9" d="M23.6,49.2c.37,0,.85,0,1.34.05.22.02.42.08.63.13.07.02.13.06.18.12.12.14.23.27.35.41.05.06.07.12.07.2,0,.1-.03.2-.05.29-.06.31-.12.62-.18.93-.02.08-.07.12-.15.12-.07,0-.14-.02-.2-.06-.08-.06-.16-.12-.24-.18-.24-.18-.48-.35-.78-.4-.04,0-.09-.03-.13-.02-.22,0-.43-.04-.64-.1-.06-.02-.12,0-.19,0-.61.05-1.22.1-1.83.15-.52.04-1.04.09-1.56.14-.23.02-.45.03-.67-.06-.07-.03-.14-.04-.21-.06-.21-.06-.21-.07-.2-.28,0-.06.02-.1.08-.13.04-.02.08-.04.12-.06.16-.06.24-.18.27-.34,0-.02,0-.04.01-.05.02-.11.08-.17.19-.19.37-.09.73-.18,1.1-.28.45-.13.91-.2,1.37-.3.07-.02.14,0,.22,0h1.09v-.02h0Z"/>
      <path class="cls-9" d="M25.72,51.99v.05c-.1.32-.2.63-.29.95-.02.08-.06.12-.14.13-.19.02-.37.05-.56.07-.55.06-1.09.12-1.64.18-.38.04-.75.08-1.13.13-.15.02-.3.03-.46.02-.47-.04-.93-.07-1.4-.12-.22-.02-.45-.03-.67-.04-.13,0-.15-.04-.15-.17,0-.05.02-.09.07-.09.11,0,.19-.04.21-.17,0-.04.05-.06.08-.05.2,0,.29-.1.35-.27.03-.1.08-.2.12-.3.03-.07.08-.11.16-.12.27-.02.53-.08.79-.15.2-.05.41-.06.62-.07.14,0,.27-.03.36-.14.07-.08.16-.08.25-.08h.97c.28,0,.56-.04.83-.05h.43c.15,0,.3.04.44.1.21.09.42.15.65.17.03,0,.05.02.07.02h.04Z"/>
      <path class="cls-17" d="M43.5,49.75c.23-.07.44-.05.64-.05.44-.02.88-.02,1.32-.03.04,0,.08,0,.08.05v.1s-.07.06-.11.07c-.55.21-1.11.41-1.66.62-.05.02-.09,0-.1-.05-.05-.23-.1-.45-.16-.7h-.01Z"/>
      <path class="cls-17" d="M25.51,50.62c-.1-.06-.16-.09-.22-.13-.29-.17-.59-.26-.92-.27-.13,0-.25-.03-.37-.06-.15-.04-.3-.05-.45-.03-.65.06-1.29.11-1.94.16-.45.04-.9.08-1.34.11h-.11s-.05-.02-.05-.05c0-.02,0-.04.02-.05.04-.02.08-.04.12-.05.64-.17,1.29-.34,1.94-.47.2-.04.39-.05.59-.05h1.57c.29,0,.57.03.86.09.18.04.28.16.37.29.02.03.02.07,0,.1-.02.11-.04.23-.07.38v.02h0Z"/>
      <path class="cls-18" d="M21.62,52.99c-.35-.03-.69-.07-1.03-.1-.03,0-.06,0-.06-.04,0-.03,0-.08.03-.1.03-.03.08-.05.12-.05.38-.07.75-.18,1.14-.19.17,0,.32-.05.46-.14.09-.06.18-.07.28-.07h.76c.31,0,.61-.04.92-.05.25,0,.49.02.71.13.04.02.09.03.09.09,0,.07-.06.15-.12.16-.12.02-.25.03-.37.05-.76.09-1.52.17-2.28.26-.21.02-.43.05-.63.07,0,0-.02-.02-.02-.02Z"/>
    </g>
  </g>
</svg>